<mxfile host="Electron" modified="2024-05-03T13:25:48.656Z" agent="Mozilla/5.0 (Windows NT 10.0; Win64; x64) AppleWebKit/537.36 (KHTML, like Gecko) draw.io/21.6.8 Chrome/114.0.5735.289 Electron/25.5.0 Safari/537.36" etag="yDbkm5PR9rtyJct_lTyg" version="21.6.8" type="device">
  <diagram name="Page-1" id="OExnZxE-dr9uUc5hDmxy">
    <mxGraphModel dx="1168" dy="671" grid="1" gridSize="10" guides="1" tooltips="1" connect="1" arrows="1" fold="1" page="1" pageScale="1" pageWidth="827" pageHeight="1169" math="0" shadow="0">
      <root>
        <mxCell id="0" />
        <mxCell id="1" parent="0" />
        <mxCell id="41_dY38SIug0fhBY5Ak5-225" value="" style="rounded=0;whiteSpace=wrap;html=1;glass=0;sketch=0;fillStyle=auto;sketchStyle=rough;fontSize=20;strokeColor=#000000;strokeWidth=1;fillColor=#FFFFFF;gradientColor=none;gradientDirection=north;container=0;" vertex="1" parent="1">
          <mxGeometry x="40" y="40" width="670" height="430" as="geometry" />
        </mxCell>
        <mxCell id="41_dY38SIug0fhBY5Ak5-163" value="" style="rounded=0;whiteSpace=wrap;html=1;glass=0;sketch=0;fillStyle=auto;sketchStyle=rough;fontSize=20;strokeColor=none;strokeWidth=1;fillColor=#EDEDED;gradientColor=none;gradientDirection=north;container=0;movable=1;resizable=1;rotatable=1;deletable=1;editable=1;locked=0;connectable=1;" vertex="1" parent="1">
          <mxGeometry x="170" y="200" width="520" height="200" as="geometry" />
        </mxCell>
        <mxCell id="41_dY38SIug0fhBY5Ak5-58" value="" style="rounded=0;whiteSpace=wrap;html=1;glass=0;sketch=0;fillStyle=auto;sketchStyle=rough;fontSize=20;strokeColor=none;strokeWidth=1;fillColor=#EDEDED;gradientColor=none;gradientDirection=north;container=0;movable=1;resizable=1;rotatable=1;deletable=1;editable=1;locked=0;connectable=1;" vertex="1" parent="1">
          <mxGeometry x="170" y="60" width="520" height="120" as="geometry" />
        </mxCell>
        <mxCell id="41_dY38SIug0fhBY5Ak5-57" value="Resource load" style="text;html=1;strokeColor=none;fillColor=none;align=center;verticalAlign=middle;whiteSpace=wrap;rounded=0;glass=0;sketch=0;fillStyle=auto;sketchStyle=rough;fontFamily=Verdana;fontSize=18;container=0;horizontal=0;movable=1;resizable=1;rotatable=1;deletable=1;editable=1;locked=0;connectable=1;" vertex="1" parent="1">
          <mxGeometry x="50" y="60" width="60" height="120" as="geometry" />
        </mxCell>
        <mxCell id="41_dY38SIug0fhBY5Ak5-81" value="" style="group" vertex="1" connectable="0" parent="1">
          <mxGeometry x="160" y="420" width="530" height="40" as="geometry" />
        </mxCell>
        <mxCell id="41_dY38SIug0fhBY5Ak5-64" value="0" style="text;html=1;strokeColor=none;fillColor=none;align=center;verticalAlign=middle;whiteSpace=wrap;rounded=0;container=0;" vertex="1" parent="41_dY38SIug0fhBY5Ak5-81">
          <mxGeometry y="10" width="20" height="30" as="geometry" />
        </mxCell>
        <mxCell id="41_dY38SIug0fhBY5Ak5-65" value="4" style="text;html=1;strokeColor=none;fillColor=none;align=center;verticalAlign=middle;whiteSpace=wrap;rounded=0;container=0;" vertex="1" parent="41_dY38SIug0fhBY5Ak5-81">
          <mxGeometry x="80" y="10" width="20" height="30" as="geometry" />
        </mxCell>
        <mxCell id="41_dY38SIug0fhBY5Ak5-66" value="8" style="text;html=1;strokeColor=none;fillColor=none;align=center;verticalAlign=middle;whiteSpace=wrap;rounded=0;container=0;" vertex="1" parent="41_dY38SIug0fhBY5Ak5-81">
          <mxGeometry x="160" y="10" width="20" height="30" as="geometry" />
        </mxCell>
        <mxCell id="41_dY38SIug0fhBY5Ak5-67" value="12" style="text;html=1;strokeColor=none;fillColor=none;align=center;verticalAlign=middle;whiteSpace=wrap;rounded=0;container=0;" vertex="1" parent="41_dY38SIug0fhBY5Ak5-81">
          <mxGeometry x="240" y="10" width="20" height="30" as="geometry" />
        </mxCell>
        <mxCell id="41_dY38SIug0fhBY5Ak5-68" value="16" style="text;html=1;strokeColor=none;fillColor=none;align=center;verticalAlign=middle;whiteSpace=wrap;rounded=0;container=0;" vertex="1" parent="41_dY38SIug0fhBY5Ak5-81">
          <mxGeometry x="320" y="10" width="20" height="30" as="geometry" />
        </mxCell>
        <mxCell id="41_dY38SIug0fhBY5Ak5-69" value="20" style="text;html=1;strokeColor=none;fillColor=none;align=center;verticalAlign=middle;whiteSpace=wrap;rounded=0;container=0;" vertex="1" parent="41_dY38SIug0fhBY5Ak5-81">
          <mxGeometry x="400" y="10" width="20" height="30" as="geometry" />
        </mxCell>
        <mxCell id="41_dY38SIug0fhBY5Ak5-70" value="24" style="text;html=1;strokeColor=none;fillColor=none;align=center;verticalAlign=middle;whiteSpace=wrap;rounded=0;container=0;" vertex="1" parent="41_dY38SIug0fhBY5Ak5-81">
          <mxGeometry x="480" y="10" width="20" height="30" as="geometry" />
        </mxCell>
        <mxCell id="41_dY38SIug0fhBY5Ak5-21" value="" style="endArrow=block;html=1;rounded=0;fontSize=20;startSize=5;endSize=14;targetPerimeterSpacing=0;strokeWidth=1;jumpStyle=none;jumpSize=6;fontStyle=0;fontFamily=Verdana;endFill=1;labelBackgroundColor=none;spacingLeft=0;spacing=2;labelPosition=center;verticalLabelPosition=middle;align=center;verticalAlign=middle;movable=1;resizable=1;rotatable=1;deletable=1;editable=1;locked=0;connectable=1;" edge="1" parent="41_dY38SIug0fhBY5Ak5-81">
          <mxGeometry x="0.8179" y="-16" width="50" height="50" relative="1" as="geometry">
            <mxPoint x="10" as="sourcePoint" />
            <mxPoint x="530" as="targetPoint" />
            <mxPoint as="offset" />
          </mxGeometry>
        </mxCell>
        <mxCell id="41_dY38SIug0fhBY5Ak5-22" value="" style="endArrow=none;html=1;rounded=0;" edge="1" parent="41_dY38SIug0fhBY5Ak5-81">
          <mxGeometry width="50" height="50" relative="1" as="geometry">
            <mxPoint x="10" y="10" as="sourcePoint" />
            <mxPoint x="10" as="targetPoint" />
          </mxGeometry>
        </mxCell>
        <mxCell id="41_dY38SIug0fhBY5Ak5-23" value="" style="endArrow=none;html=1;rounded=0;" edge="1" parent="41_dY38SIug0fhBY5Ak5-81">
          <mxGeometry width="50" height="50" relative="1" as="geometry">
            <mxPoint x="30" y="10" as="sourcePoint" />
            <mxPoint x="30" as="targetPoint" />
          </mxGeometry>
        </mxCell>
        <mxCell id="41_dY38SIug0fhBY5Ak5-24" value="" style="endArrow=none;html=1;rounded=0;" edge="1" parent="41_dY38SIug0fhBY5Ak5-81">
          <mxGeometry width="50" height="50" relative="1" as="geometry">
            <mxPoint x="50" y="10" as="sourcePoint" />
            <mxPoint x="50" as="targetPoint" />
          </mxGeometry>
        </mxCell>
        <mxCell id="41_dY38SIug0fhBY5Ak5-25" value="" style="endArrow=none;html=1;rounded=0;" edge="1" parent="41_dY38SIug0fhBY5Ak5-81">
          <mxGeometry width="50" height="50" relative="1" as="geometry">
            <mxPoint x="70" y="10" as="sourcePoint" />
            <mxPoint x="70" as="targetPoint" />
          </mxGeometry>
        </mxCell>
        <mxCell id="41_dY38SIug0fhBY5Ak5-26" value="" style="endArrow=none;html=1;rounded=0;" edge="1" parent="41_dY38SIug0fhBY5Ak5-81">
          <mxGeometry width="50" height="50" relative="1" as="geometry">
            <mxPoint x="90" y="15" as="sourcePoint" />
            <mxPoint x="90" as="targetPoint" />
          </mxGeometry>
        </mxCell>
        <mxCell id="41_dY38SIug0fhBY5Ak5-27" value="" style="endArrow=none;html=1;rounded=0;" edge="1" parent="41_dY38SIug0fhBY5Ak5-81">
          <mxGeometry width="50" height="50" relative="1" as="geometry">
            <mxPoint x="110" y="10" as="sourcePoint" />
            <mxPoint x="110" as="targetPoint" />
          </mxGeometry>
        </mxCell>
        <mxCell id="41_dY38SIug0fhBY5Ak5-28" value="" style="endArrow=none;html=1;rounded=0;" edge="1" parent="41_dY38SIug0fhBY5Ak5-81">
          <mxGeometry width="50" height="50" relative="1" as="geometry">
            <mxPoint x="130" y="10" as="sourcePoint" />
            <mxPoint x="130" as="targetPoint" />
          </mxGeometry>
        </mxCell>
        <mxCell id="41_dY38SIug0fhBY5Ak5-29" value="" style="endArrow=none;html=1;rounded=0;" edge="1" parent="41_dY38SIug0fhBY5Ak5-81">
          <mxGeometry width="50" height="50" relative="1" as="geometry">
            <mxPoint x="150" y="10" as="sourcePoint" />
            <mxPoint x="150" as="targetPoint" />
          </mxGeometry>
        </mxCell>
        <mxCell id="41_dY38SIug0fhBY5Ak5-30" value="" style="endArrow=none;html=1;rounded=0;" edge="1" parent="41_dY38SIug0fhBY5Ak5-81">
          <mxGeometry width="50" height="50" relative="1" as="geometry">
            <mxPoint x="170" y="10" as="sourcePoint" />
            <mxPoint x="170" as="targetPoint" />
          </mxGeometry>
        </mxCell>
        <mxCell id="41_dY38SIug0fhBY5Ak5-31" value="" style="endArrow=none;html=1;rounded=0;" edge="1" parent="41_dY38SIug0fhBY5Ak5-81">
          <mxGeometry width="50" height="50" relative="1" as="geometry">
            <mxPoint x="190" y="10" as="sourcePoint" />
            <mxPoint x="190" as="targetPoint" />
          </mxGeometry>
        </mxCell>
        <mxCell id="41_dY38SIug0fhBY5Ak5-32" value="" style="endArrow=none;html=1;rounded=0;" edge="1" parent="41_dY38SIug0fhBY5Ak5-81">
          <mxGeometry width="50" height="50" relative="1" as="geometry">
            <mxPoint x="210" y="10" as="sourcePoint" />
            <mxPoint x="210" as="targetPoint" />
          </mxGeometry>
        </mxCell>
        <mxCell id="41_dY38SIug0fhBY5Ak5-33" value="" style="endArrow=none;html=1;rounded=0;" edge="1" parent="41_dY38SIug0fhBY5Ak5-81">
          <mxGeometry width="50" height="50" relative="1" as="geometry">
            <mxPoint x="230" y="10" as="sourcePoint" />
            <mxPoint x="230" as="targetPoint" />
          </mxGeometry>
        </mxCell>
        <mxCell id="41_dY38SIug0fhBY5Ak5-34" value="" style="endArrow=none;html=1;rounded=0;" edge="1" parent="41_dY38SIug0fhBY5Ak5-81">
          <mxGeometry width="50" height="50" relative="1" as="geometry">
            <mxPoint x="250" y="10" as="sourcePoint" />
            <mxPoint x="250" as="targetPoint" />
          </mxGeometry>
        </mxCell>
        <mxCell id="41_dY38SIug0fhBY5Ak5-35" value="" style="endArrow=none;html=1;rounded=0;" edge="1" parent="41_dY38SIug0fhBY5Ak5-81">
          <mxGeometry width="50" height="50" relative="1" as="geometry">
            <mxPoint x="270" y="10" as="sourcePoint" />
            <mxPoint x="270" as="targetPoint" />
          </mxGeometry>
        </mxCell>
        <mxCell id="41_dY38SIug0fhBY5Ak5-36" value="" style="endArrow=none;html=1;rounded=0;" edge="1" parent="41_dY38SIug0fhBY5Ak5-81">
          <mxGeometry width="50" height="50" relative="1" as="geometry">
            <mxPoint x="290" y="10" as="sourcePoint" />
            <mxPoint x="290" as="targetPoint" />
          </mxGeometry>
        </mxCell>
        <mxCell id="41_dY38SIug0fhBY5Ak5-37" value="" style="endArrow=none;html=1;rounded=0;" edge="1" parent="41_dY38SIug0fhBY5Ak5-81">
          <mxGeometry width="50" height="50" relative="1" as="geometry">
            <mxPoint x="310" y="10" as="sourcePoint" />
            <mxPoint x="310" as="targetPoint" />
          </mxGeometry>
        </mxCell>
        <mxCell id="41_dY38SIug0fhBY5Ak5-38" value="" style="endArrow=none;html=1;rounded=0;" edge="1" parent="41_dY38SIug0fhBY5Ak5-81">
          <mxGeometry width="50" height="50" relative="1" as="geometry">
            <mxPoint x="330" y="10" as="sourcePoint" />
            <mxPoint x="330" as="targetPoint" />
          </mxGeometry>
        </mxCell>
        <mxCell id="41_dY38SIug0fhBY5Ak5-39" value="" style="endArrow=none;html=1;rounded=0;" edge="1" parent="41_dY38SIug0fhBY5Ak5-81">
          <mxGeometry width="50" height="50" relative="1" as="geometry">
            <mxPoint x="350" y="10" as="sourcePoint" />
            <mxPoint x="350" as="targetPoint" />
          </mxGeometry>
        </mxCell>
        <mxCell id="41_dY38SIug0fhBY5Ak5-40" value="" style="endArrow=none;html=1;rounded=0;" edge="1" parent="41_dY38SIug0fhBY5Ak5-81">
          <mxGeometry width="50" height="50" relative="1" as="geometry">
            <mxPoint x="370" y="10" as="sourcePoint" />
            <mxPoint x="370" as="targetPoint" />
          </mxGeometry>
        </mxCell>
        <mxCell id="41_dY38SIug0fhBY5Ak5-41" value="" style="endArrow=none;html=1;rounded=0;" edge="1" parent="41_dY38SIug0fhBY5Ak5-81">
          <mxGeometry width="50" height="50" relative="1" as="geometry">
            <mxPoint x="390" y="10" as="sourcePoint" />
            <mxPoint x="390" as="targetPoint" />
          </mxGeometry>
        </mxCell>
        <mxCell id="41_dY38SIug0fhBY5Ak5-42" value="" style="endArrow=none;html=1;rounded=0;" edge="1" parent="41_dY38SIug0fhBY5Ak5-81">
          <mxGeometry width="50" height="50" relative="1" as="geometry">
            <mxPoint x="410" y="10" as="sourcePoint" />
            <mxPoint x="410" as="targetPoint" />
          </mxGeometry>
        </mxCell>
        <mxCell id="41_dY38SIug0fhBY5Ak5-43" value="" style="endArrow=none;html=1;rounded=0;" edge="1" parent="41_dY38SIug0fhBY5Ak5-81">
          <mxGeometry width="50" height="50" relative="1" as="geometry">
            <mxPoint x="430" y="10" as="sourcePoint" />
            <mxPoint x="430" as="targetPoint" />
          </mxGeometry>
        </mxCell>
        <mxCell id="41_dY38SIug0fhBY5Ak5-44" value="" style="endArrow=none;html=1;rounded=0;" edge="1" parent="41_dY38SIug0fhBY5Ak5-81">
          <mxGeometry width="50" height="50" relative="1" as="geometry">
            <mxPoint x="450" y="10" as="sourcePoint" />
            <mxPoint x="450" as="targetPoint" />
          </mxGeometry>
        </mxCell>
        <mxCell id="41_dY38SIug0fhBY5Ak5-45" value="" style="endArrow=none;html=1;rounded=0;" edge="1" parent="41_dY38SIug0fhBY5Ak5-81">
          <mxGeometry width="50" height="50" relative="1" as="geometry">
            <mxPoint x="470" y="10" as="sourcePoint" />
            <mxPoint x="470" as="targetPoint" />
          </mxGeometry>
        </mxCell>
        <mxCell id="41_dY38SIug0fhBY5Ak5-46" value="" style="endArrow=none;html=1;rounded=0;" edge="1" parent="41_dY38SIug0fhBY5Ak5-81">
          <mxGeometry width="50" height="50" relative="1" as="geometry">
            <mxPoint x="490" y="10" as="sourcePoint" />
            <mxPoint x="490" as="targetPoint" />
          </mxGeometry>
        </mxCell>
        <mxCell id="41_dY38SIug0fhBY5Ak5-74" value="" style="endArrow=none;html=1;rounded=0;" edge="1" parent="41_dY38SIug0fhBY5Ak5-81">
          <mxGeometry width="50" height="50" relative="1" as="geometry">
            <mxPoint x="170" y="15" as="sourcePoint" />
            <mxPoint x="170" as="targetPoint" />
          </mxGeometry>
        </mxCell>
        <mxCell id="41_dY38SIug0fhBY5Ak5-75" value="" style="endArrow=none;html=1;rounded=0;" edge="1" parent="41_dY38SIug0fhBY5Ak5-81">
          <mxGeometry width="50" height="50" relative="1" as="geometry">
            <mxPoint x="250" y="15" as="sourcePoint" />
            <mxPoint x="250" as="targetPoint" />
          </mxGeometry>
        </mxCell>
        <mxCell id="41_dY38SIug0fhBY5Ak5-76" value="" style="endArrow=none;html=1;rounded=0;" edge="1" parent="41_dY38SIug0fhBY5Ak5-81">
          <mxGeometry width="50" height="50" relative="1" as="geometry">
            <mxPoint x="330" y="15" as="sourcePoint" />
            <mxPoint x="330" as="targetPoint" />
          </mxGeometry>
        </mxCell>
        <mxCell id="41_dY38SIug0fhBY5Ak5-77" value="" style="endArrow=none;html=1;rounded=0;" edge="1" parent="41_dY38SIug0fhBY5Ak5-81">
          <mxGeometry width="50" height="50" relative="1" as="geometry">
            <mxPoint x="410" y="15" as="sourcePoint" />
            <mxPoint x="410" as="targetPoint" />
          </mxGeometry>
        </mxCell>
        <mxCell id="41_dY38SIug0fhBY5Ak5-78" value="" style="endArrow=none;html=1;rounded=0;" edge="1" parent="41_dY38SIug0fhBY5Ak5-81">
          <mxGeometry width="50" height="50" relative="1" as="geometry">
            <mxPoint x="490" y="15" as="sourcePoint" />
            <mxPoint x="490" as="targetPoint" />
          </mxGeometry>
        </mxCell>
        <mxCell id="41_dY38SIug0fhBY5Ak5-82" value="" style="rounded=0;whiteSpace=wrap;html=1;fontSize=20;strokeWidth=1;fillColor=#B3B3B3;strokeColor=none;gradientColor=none;gradientDirection=north;sketch=1;sketchStyle=rough;fillStyle=dashed;perimeterSpacing=0;labelBackgroundColor=none;disableMultiStroke=0;disableMultiStrokeFill=0;dashOffset=10;dashGap=3;hachureGap=5;fillWeight=1;hachureAngle=-45;curveFitting=-5.05;simplification=1;zigzagOffset=-10;fontStyle=0;container=0;" vertex="1" parent="1">
          <mxGeometry x="170" y="80" width="520" height="80" as="geometry" />
        </mxCell>
        <mxCell id="41_dY38SIug0fhBY5Ak5-132" value="" style="endArrow=none;html=1;rounded=0;" edge="1" parent="1">
          <mxGeometry width="50" height="50" relative="1" as="geometry">
            <mxPoint x="140" y="160" as="sourcePoint" />
            <mxPoint x="150" y="160" as="targetPoint" />
          </mxGeometry>
        </mxCell>
        <mxCell id="41_dY38SIug0fhBY5Ak5-133" value="" style="endArrow=none;html=1;rounded=0;" edge="1" parent="1">
          <mxGeometry width="50" height="50" relative="1" as="geometry">
            <mxPoint x="140" y="140" as="sourcePoint" />
            <mxPoint x="150" y="140" as="targetPoint" />
          </mxGeometry>
        </mxCell>
        <mxCell id="41_dY38SIug0fhBY5Ak5-134" value="" style="endArrow=none;html=1;rounded=0;" edge="1" parent="1">
          <mxGeometry width="50" height="50" relative="1" as="geometry">
            <mxPoint x="140" y="120" as="sourcePoint" />
            <mxPoint x="150" y="120" as="targetPoint" />
          </mxGeometry>
        </mxCell>
        <mxCell id="41_dY38SIug0fhBY5Ak5-135" value="" style="endArrow=none;html=1;rounded=0;" edge="1" parent="1">
          <mxGeometry width="50" height="50" relative="1" as="geometry">
            <mxPoint x="140" y="100" as="sourcePoint" />
            <mxPoint x="150" y="100" as="targetPoint" />
          </mxGeometry>
        </mxCell>
        <mxCell id="41_dY38SIug0fhBY5Ak5-136" value="" style="endArrow=none;html=1;rounded=0;" edge="1" parent="1">
          <mxGeometry width="50" height="50" relative="1" as="geometry">
            <mxPoint x="140" y="80" as="sourcePoint" />
            <mxPoint x="150" y="80" as="targetPoint" />
          </mxGeometry>
        </mxCell>
        <mxCell id="41_dY38SIug0fhBY5Ak5-137" value="" style="endArrow=none;html=1;rounded=0;" edge="1" parent="1">
          <mxGeometry width="50" height="50" relative="1" as="geometry">
            <mxPoint x="150" y="80" as="sourcePoint" />
            <mxPoint x="150" y="160" as="targetPoint" />
          </mxGeometry>
        </mxCell>
        <mxCell id="41_dY38SIug0fhBY5Ak5-138" value="0" style="text;html=1;strokeColor=none;fillColor=none;align=center;verticalAlign=middle;whiteSpace=wrap;rounded=0;" vertex="1" parent="1">
          <mxGeometry x="110" y="150" width="30" height="20" as="geometry" />
        </mxCell>
        <mxCell id="41_dY38SIug0fhBY5Ak5-139" value="2" style="text;html=1;strokeColor=none;fillColor=none;align=center;verticalAlign=middle;whiteSpace=wrap;rounded=0;" vertex="1" parent="1">
          <mxGeometry x="110" y="110" width="30" height="20" as="geometry" />
        </mxCell>
        <mxCell id="41_dY38SIug0fhBY5Ak5-140" value="4" style="text;html=1;strokeColor=none;fillColor=none;align=center;verticalAlign=middle;whiteSpace=wrap;rounded=0;" vertex="1" parent="1">
          <mxGeometry x="110" y="70" width="30" height="20" as="geometry" />
        </mxCell>
        <mxCell id="41_dY38SIug0fhBY5Ak5-141" value="3" style="text;html=1;strokeColor=none;fillColor=none;align=center;verticalAlign=middle;whiteSpace=wrap;rounded=0;" vertex="1" parent="1">
          <mxGeometry x="110" y="90" width="30" height="20" as="geometry" />
        </mxCell>
        <mxCell id="41_dY38SIug0fhBY5Ak5-142" value="1" style="text;html=1;strokeColor=none;fillColor=none;align=center;verticalAlign=middle;whiteSpace=wrap;rounded=0;" vertex="1" parent="1">
          <mxGeometry x="110" y="130" width="30" height="20" as="geometry" />
        </mxCell>
        <mxCell id="41_dY38SIug0fhBY5Ak5-160" value="" style="endArrow=none;html=1;rounded=0;strokeWidth=2;" edge="1" parent="1">
          <mxGeometry width="50" height="50" relative="1" as="geometry">
            <mxPoint x="170" y="160" as="sourcePoint" />
            <mxPoint x="692.4691358024692" y="160" as="targetPoint" />
            <Array as="points">
              <mxPoint x="190" y="160" />
              <mxPoint x="190" y="140" />
              <mxPoint x="210" y="140" />
              <mxPoint x="210" y="100" />
              <mxPoint x="230" y="100" />
              <mxPoint x="230" y="120" />
              <mxPoint x="250" y="120" />
              <mxPoint x="250" y="160" />
              <mxPoint x="270" y="160" />
              <mxPoint x="270" y="120" />
              <mxPoint x="290" y="120" />
              <mxPoint x="290" y="80" />
              <mxPoint x="390" y="80" />
              <mxPoint x="390" y="100" />
              <mxPoint x="410" y="100" />
              <mxPoint x="410" y="160" />
              <mxPoint x="430" y="160" />
              <mxPoint x="430" y="120" />
              <mxPoint x="450" y="120" />
              <mxPoint x="450" y="140" />
              <mxPoint x="490" y="140" />
              <mxPoint x="490" y="120" />
              <mxPoint x="570" y="120" />
              <mxPoint x="570" y="100" />
              <mxPoint x="610" y="100" />
              <mxPoint x="610" y="80" />
              <mxPoint x="630" y="80" />
              <mxPoint x="630" y="100" />
              <mxPoint x="650" y="100" />
              <mxPoint x="650" y="160" />
            </Array>
          </mxGeometry>
        </mxCell>
        <mxCell id="41_dY38SIug0fhBY5Ak5-143" value="" style="rounded=0;whiteSpace=wrap;html=1;strokeColor=none;fillColor=#99FF99;" vertex="1" parent="1">
          <mxGeometry x="190" y="140" width="20" height="20" as="geometry" />
        </mxCell>
        <mxCell id="41_dY38SIug0fhBY5Ak5-144" value="" style="rounded=0;whiteSpace=wrap;html=1;strokeColor=none;fillColor=#99FF99;" vertex="1" parent="1">
          <mxGeometry x="210" y="100" width="20" height="60" as="geometry" />
        </mxCell>
        <mxCell id="41_dY38SIug0fhBY5Ak5-145" value="" style="rounded=0;whiteSpace=wrap;html=1;strokeColor=none;fillColor=#99FF99;" vertex="1" parent="1">
          <mxGeometry x="230" y="120" width="20" height="40" as="geometry" />
        </mxCell>
        <mxCell id="41_dY38SIug0fhBY5Ak5-147" value="" style="rounded=0;whiteSpace=wrap;html=1;strokeColor=none;fillColor=#99FF99;" vertex="1" parent="1">
          <mxGeometry x="270" y="120" width="20" height="40" as="geometry" />
        </mxCell>
        <mxCell id="41_dY38SIug0fhBY5Ak5-148" value="" style="rounded=0;whiteSpace=wrap;html=1;strokeColor=none;fillColor=#99FF99;" vertex="1" parent="1">
          <mxGeometry x="290" y="80" width="40" height="80" as="geometry" />
        </mxCell>
        <mxCell id="41_dY38SIug0fhBY5Ak5-149" value="" style="rounded=0;whiteSpace=wrap;html=1;strokeColor=none;fillColor=#99FF99;" vertex="1" parent="1">
          <mxGeometry x="330" y="80" width="60" height="80" as="geometry" />
        </mxCell>
        <mxCell id="41_dY38SIug0fhBY5Ak5-150" value="" style="rounded=0;whiteSpace=wrap;html=1;strokeColor=none;fillColor=#99FF99;" vertex="1" parent="1">
          <mxGeometry x="390" y="100" width="20" height="60" as="geometry" />
        </mxCell>
        <mxCell id="41_dY38SIug0fhBY5Ak5-152" value="" style="rounded=0;whiteSpace=wrap;html=1;strokeColor=none;fillColor=#99FF99;" vertex="1" parent="1">
          <mxGeometry x="430" y="120" width="20" height="40" as="geometry" />
        </mxCell>
        <mxCell id="41_dY38SIug0fhBY5Ak5-153" value="" style="rounded=0;whiteSpace=wrap;html=1;strokeColor=none;fillColor=#99FF99;" vertex="1" parent="1">
          <mxGeometry x="450" y="140" width="40" height="20" as="geometry" />
        </mxCell>
        <mxCell id="41_dY38SIug0fhBY5Ak5-154" value="" style="rounded=0;whiteSpace=wrap;html=1;strokeColor=none;fillColor=#99FF99;" vertex="1" parent="1">
          <mxGeometry x="490" y="120" width="80" height="40" as="geometry" />
        </mxCell>
        <mxCell id="41_dY38SIug0fhBY5Ak5-156" value="" style="rounded=0;whiteSpace=wrap;html=1;strokeColor=none;fillColor=#99FF99;" vertex="1" parent="1">
          <mxGeometry x="570" y="100" width="40" height="60" as="geometry" />
        </mxCell>
        <mxCell id="41_dY38SIug0fhBY5Ak5-157" value="" style="rounded=0;whiteSpace=wrap;html=1;strokeColor=none;fillColor=#99FF99;" vertex="1" parent="1">
          <mxGeometry x="610" y="80" width="20" height="80" as="geometry" />
        </mxCell>
        <mxCell id="41_dY38SIug0fhBY5Ak5-159" value="" style="rounded=0;whiteSpace=wrap;html=1;strokeColor=none;fillColor=#99FF99;" vertex="1" parent="1">
          <mxGeometry x="630" y="100" width="20" height="60" as="geometry" />
        </mxCell>
        <mxCell id="41_dY38SIug0fhBY5Ak5-54" value="" style="endArrow=none;html=1;rounded=0;fontSize=20;targetPerimeterSpacing=0;strokeWidth=2;startArrow=none;startFill=0;endSize=5;startSize=5;endFill=0;movable=1;resizable=1;rotatable=1;deletable=1;editable=1;locked=0;connectable=1;" edge="1" parent="1">
          <mxGeometry width="50" height="50" relative="1" as="geometry">
            <mxPoint x="170" y="80" as="sourcePoint" />
            <mxPoint x="690" y="80" as="targetPoint" />
          </mxGeometry>
        </mxCell>
        <mxCell id="41_dY38SIug0fhBY5Ak5-61" value="" style="endArrow=none;html=1;rounded=0;fontSize=20;targetPerimeterSpacing=0;strokeWidth=2;startArrow=none;startFill=0;endSize=5;startSize=5;jumpStyle=none;jumpSize=6;dashed=1;dashPattern=1 1;endFill=0;" edge="1" parent="1">
          <mxGeometry width="50" height="50" relative="1" as="geometry">
            <mxPoint x="170" y="160" as="sourcePoint" />
            <mxPoint x="690" y="160" as="targetPoint" />
          </mxGeometry>
        </mxCell>
        <mxCell id="41_dY38SIug0fhBY5Ak5-188" value="" style="group" vertex="1" connectable="0" parent="1">
          <mxGeometry x="135" y="220" width="15" height="160" as="geometry" />
        </mxCell>
        <mxCell id="41_dY38SIug0fhBY5Ak5-169" value="" style="endArrow=none;html=1;rounded=0;" edge="1" parent="41_dY38SIug0fhBY5Ak5-188">
          <mxGeometry width="50" height="50" relative="1" as="geometry">
            <mxPoint x="15" as="sourcePoint" />
            <mxPoint x="15" y="160" as="targetPoint" />
          </mxGeometry>
        </mxCell>
        <mxCell id="41_dY38SIug0fhBY5Ak5-170" value="" style="endArrow=none;html=1;rounded=0;" edge="1" parent="41_dY38SIug0fhBY5Ak5-188">
          <mxGeometry width="50" height="50" relative="1" as="geometry">
            <mxPoint x="15" y="160" as="sourcePoint" />
            <mxPoint y="160" as="targetPoint" />
          </mxGeometry>
        </mxCell>
        <mxCell id="41_dY38SIug0fhBY5Ak5-171" value="" style="endArrow=none;html=1;rounded=0;" edge="1" parent="41_dY38SIug0fhBY5Ak5-188">
          <mxGeometry width="50" height="50" relative="1" as="geometry">
            <mxPoint x="15" y="150" as="sourcePoint" />
            <mxPoint x="5" y="150" as="targetPoint" />
          </mxGeometry>
        </mxCell>
        <mxCell id="41_dY38SIug0fhBY5Ak5-172" value="" style="endArrow=none;html=1;rounded=0;" edge="1" parent="41_dY38SIug0fhBY5Ak5-188">
          <mxGeometry width="50" height="50" relative="1" as="geometry">
            <mxPoint x="15" y="140" as="sourcePoint" />
            <mxPoint x="5" y="140" as="targetPoint" />
          </mxGeometry>
        </mxCell>
        <mxCell id="41_dY38SIug0fhBY5Ak5-173" value="" style="endArrow=none;html=1;rounded=0;" edge="1" parent="41_dY38SIug0fhBY5Ak5-188">
          <mxGeometry width="50" height="50" relative="1" as="geometry">
            <mxPoint x="15" y="130" as="sourcePoint" />
            <mxPoint x="5" y="130" as="targetPoint" />
          </mxGeometry>
        </mxCell>
        <mxCell id="41_dY38SIug0fhBY5Ak5-174" value="" style="endArrow=none;html=1;rounded=0;" edge="1" parent="41_dY38SIug0fhBY5Ak5-188">
          <mxGeometry width="50" height="50" relative="1" as="geometry">
            <mxPoint x="15" y="120" as="sourcePoint" />
            <mxPoint y="120" as="targetPoint" />
          </mxGeometry>
        </mxCell>
        <mxCell id="41_dY38SIug0fhBY5Ak5-175" value="" style="endArrow=none;html=1;rounded=0;" edge="1" parent="41_dY38SIug0fhBY5Ak5-188">
          <mxGeometry width="50" height="50" relative="1" as="geometry">
            <mxPoint x="15" y="110" as="sourcePoint" />
            <mxPoint x="5" y="110" as="targetPoint" />
          </mxGeometry>
        </mxCell>
        <mxCell id="41_dY38SIug0fhBY5Ak5-176" value="" style="endArrow=none;html=1;rounded=0;" edge="1" parent="41_dY38SIug0fhBY5Ak5-188">
          <mxGeometry width="50" height="50" relative="1" as="geometry">
            <mxPoint x="15" y="100" as="sourcePoint" />
            <mxPoint x="5" y="100" as="targetPoint" />
          </mxGeometry>
        </mxCell>
        <mxCell id="41_dY38SIug0fhBY5Ak5-177" value="" style="endArrow=none;html=1;rounded=0;" edge="1" parent="41_dY38SIug0fhBY5Ak5-188">
          <mxGeometry width="50" height="50" relative="1" as="geometry">
            <mxPoint x="15" y="90" as="sourcePoint" />
            <mxPoint x="5" y="90" as="targetPoint" />
          </mxGeometry>
        </mxCell>
        <mxCell id="41_dY38SIug0fhBY5Ak5-178" value="" style="endArrow=none;html=1;rounded=0;" edge="1" parent="41_dY38SIug0fhBY5Ak5-188">
          <mxGeometry width="50" height="50" relative="1" as="geometry">
            <mxPoint x="15" y="80" as="sourcePoint" />
            <mxPoint y="80" as="targetPoint" />
          </mxGeometry>
        </mxCell>
        <mxCell id="41_dY38SIug0fhBY5Ak5-179" value="" style="endArrow=none;html=1;rounded=0;" edge="1" parent="41_dY38SIug0fhBY5Ak5-188">
          <mxGeometry width="50" height="50" relative="1" as="geometry">
            <mxPoint x="15" y="70" as="sourcePoint" />
            <mxPoint x="5" y="70" as="targetPoint" />
          </mxGeometry>
        </mxCell>
        <mxCell id="41_dY38SIug0fhBY5Ak5-180" value="" style="endArrow=none;html=1;rounded=0;" edge="1" parent="41_dY38SIug0fhBY5Ak5-188">
          <mxGeometry width="50" height="50" relative="1" as="geometry">
            <mxPoint x="15" y="60" as="sourcePoint" />
            <mxPoint x="5" y="60" as="targetPoint" />
          </mxGeometry>
        </mxCell>
        <mxCell id="41_dY38SIug0fhBY5Ak5-181" value="" style="endArrow=none;html=1;rounded=0;" edge="1" parent="41_dY38SIug0fhBY5Ak5-188">
          <mxGeometry width="50" height="50" relative="1" as="geometry">
            <mxPoint x="15" y="50" as="sourcePoint" />
            <mxPoint x="5" y="50" as="targetPoint" />
          </mxGeometry>
        </mxCell>
        <mxCell id="41_dY38SIug0fhBY5Ak5-182" value="" style="endArrow=none;html=1;rounded=0;" edge="1" parent="41_dY38SIug0fhBY5Ak5-188">
          <mxGeometry width="50" height="50" relative="1" as="geometry">
            <mxPoint x="15" y="40" as="sourcePoint" />
            <mxPoint y="40" as="targetPoint" />
          </mxGeometry>
        </mxCell>
        <mxCell id="41_dY38SIug0fhBY5Ak5-183" value="" style="endArrow=none;html=1;rounded=0;" edge="1" parent="41_dY38SIug0fhBY5Ak5-188">
          <mxGeometry width="50" height="50" relative="1" as="geometry">
            <mxPoint x="15" y="30" as="sourcePoint" />
            <mxPoint x="5" y="30" as="targetPoint" />
          </mxGeometry>
        </mxCell>
        <mxCell id="41_dY38SIug0fhBY5Ak5-184" value="" style="endArrow=none;html=1;rounded=0;" edge="1" parent="41_dY38SIug0fhBY5Ak5-188">
          <mxGeometry width="50" height="50" relative="1" as="geometry">
            <mxPoint x="15" y="20" as="sourcePoint" />
            <mxPoint x="5" y="20" as="targetPoint" />
          </mxGeometry>
        </mxCell>
        <mxCell id="41_dY38SIug0fhBY5Ak5-185" value="" style="endArrow=none;html=1;rounded=0;" edge="1" parent="41_dY38SIug0fhBY5Ak5-188">
          <mxGeometry width="50" height="50" relative="1" as="geometry">
            <mxPoint x="15" y="10" as="sourcePoint" />
            <mxPoint x="5" y="10" as="targetPoint" />
          </mxGeometry>
        </mxCell>
        <mxCell id="41_dY38SIug0fhBY5Ak5-186" value="" style="endArrow=none;html=1;rounded=0;" edge="1" parent="41_dY38SIug0fhBY5Ak5-188">
          <mxGeometry width="50" height="50" relative="1" as="geometry">
            <mxPoint x="15" as="sourcePoint" />
            <mxPoint as="targetPoint" />
          </mxGeometry>
        </mxCell>
        <mxCell id="41_dY38SIug0fhBY5Ak5-189" value="0" style="text;html=1;strokeColor=none;fillColor=none;align=center;verticalAlign=middle;whiteSpace=wrap;rounded=0;" vertex="1" parent="1">
          <mxGeometry x="110" y="370" width="30" height="20" as="geometry" />
        </mxCell>
        <mxCell id="41_dY38SIug0fhBY5Ak5-190" value="4" style="text;html=1;strokeColor=none;fillColor=none;align=center;verticalAlign=middle;whiteSpace=wrap;rounded=0;" vertex="1" parent="1">
          <mxGeometry x="110" y="330" width="30" height="20" as="geometry" />
        </mxCell>
        <mxCell id="41_dY38SIug0fhBY5Ak5-191" value="8" style="text;html=1;strokeColor=none;fillColor=none;align=center;verticalAlign=middle;whiteSpace=wrap;rounded=0;" vertex="1" parent="1">
          <mxGeometry x="110" y="290" width="30" height="20" as="geometry" />
        </mxCell>
        <mxCell id="41_dY38SIug0fhBY5Ak5-192" value="12" style="text;html=1;strokeColor=none;fillColor=none;align=center;verticalAlign=middle;whiteSpace=wrap;rounded=0;" vertex="1" parent="1">
          <mxGeometry x="110" y="250" width="30" height="20" as="geometry" />
        </mxCell>
        <mxCell id="41_dY38SIug0fhBY5Ak5-193" value="16" style="text;html=1;strokeColor=none;fillColor=none;align=center;verticalAlign=middle;whiteSpace=wrap;rounded=0;" vertex="1" parent="1">
          <mxGeometry x="110" y="210" width="30" height="20" as="geometry" />
        </mxCell>
        <mxCell id="41_dY38SIug0fhBY5Ak5-196" value="" style="endArrow=none;html=1;rounded=0;fontSize=20;targetPerimeterSpacing=0;strokeWidth=2;startArrow=none;startFill=0;endSize=5;startSize=5;jumpStyle=none;jumpSize=6;dashed=1;dashPattern=1 1;endFill=0;" edge="1" parent="1">
          <mxGeometry width="50" height="50" relative="1" as="geometry">
            <mxPoint x="170" y="380" as="sourcePoint" />
            <mxPoint x="690" y="380" as="targetPoint" />
          </mxGeometry>
        </mxCell>
        <mxCell id="41_dY38SIug0fhBY5Ak5-198" value="" style="endArrow=none;dashed=1;html=1;strokeWidth=1;rounded=0;" edge="1" parent="1">
          <mxGeometry width="50" height="50" relative="1" as="geometry">
            <mxPoint x="250" y="180" as="sourcePoint" />
            <mxPoint x="250" y="60" as="targetPoint" />
          </mxGeometry>
        </mxCell>
        <mxCell id="41_dY38SIug0fhBY5Ak5-199" value="" style="endArrow=none;dashed=1;html=1;strokeWidth=1;rounded=0;" edge="1" parent="1">
          <mxGeometry width="50" height="50" relative="1" as="geometry">
            <mxPoint x="170" y="180" as="sourcePoint" />
            <mxPoint x="170" y="60" as="targetPoint" />
          </mxGeometry>
        </mxCell>
        <mxCell id="41_dY38SIug0fhBY5Ak5-200" value="" style="endArrow=none;dashed=1;html=1;strokeWidth=1;rounded=0;" edge="1" parent="1">
          <mxGeometry width="50" height="50" relative="1" as="geometry">
            <mxPoint x="330" y="180" as="sourcePoint" />
            <mxPoint x="330" y="60" as="targetPoint" />
          </mxGeometry>
        </mxCell>
        <mxCell id="41_dY38SIug0fhBY5Ak5-201" value="" style="endArrow=none;dashed=1;html=1;strokeWidth=1;rounded=0;" edge="1" parent="1">
          <mxGeometry width="50" height="50" relative="1" as="geometry">
            <mxPoint x="410" y="180" as="sourcePoint" />
            <mxPoint x="410" y="60" as="targetPoint" />
          </mxGeometry>
        </mxCell>
        <mxCell id="41_dY38SIug0fhBY5Ak5-202" value="" style="endArrow=none;dashed=1;html=1;strokeWidth=1;rounded=0;" edge="1" parent="1">
          <mxGeometry width="50" height="50" relative="1" as="geometry">
            <mxPoint x="490" y="180" as="sourcePoint" />
            <mxPoint x="490" y="60" as="targetPoint" />
          </mxGeometry>
        </mxCell>
        <mxCell id="41_dY38SIug0fhBY5Ak5-203" value="" style="endArrow=none;dashed=1;html=1;strokeWidth=1;rounded=0;" edge="1" parent="1">
          <mxGeometry width="50" height="50" relative="1" as="geometry">
            <mxPoint x="570" y="180" as="sourcePoint" />
            <mxPoint x="570" y="60" as="targetPoint" />
          </mxGeometry>
        </mxCell>
        <mxCell id="41_dY38SIug0fhBY5Ak5-204" value="" style="endArrow=none;dashed=1;html=1;strokeWidth=1;rounded=0;" edge="1" parent="1">
          <mxGeometry width="50" height="50" relative="1" as="geometry">
            <mxPoint x="650" y="180" as="sourcePoint" />
            <mxPoint x="650" y="60" as="targetPoint" />
          </mxGeometry>
        </mxCell>
        <mxCell id="41_dY38SIug0fhBY5Ak5-212" value="" style="endArrow=none;dashed=1;html=1;strokeWidth=1;rounded=0;fontSize=20;startSize=5;endSize=5;targetPerimeterSpacing=0;jumpStyle=none;jumpSize=6;strokeColor=#808080;fontStyle=0" edge="1" parent="1">
          <mxGeometry width="50" height="50" relative="1" as="geometry">
            <mxPoint x="171" y="219.99" as="sourcePoint" />
            <mxPoint x="690" y="220" as="targetPoint" />
          </mxGeometry>
        </mxCell>
        <mxCell id="41_dY38SIug0fhBY5Ak5-213" value="" style="endArrow=none;dashed=1;html=1;strokeWidth=1;rounded=0;fontSize=20;startSize=5;endSize=5;targetPerimeterSpacing=0;jumpStyle=none;jumpSize=6;strokeColor=#808080;fontStyle=0" edge="1" parent="1">
          <mxGeometry width="50" height="50" relative="1" as="geometry">
            <mxPoint x="171" y="259.99" as="sourcePoint" />
            <mxPoint x="690" y="260" as="targetPoint" />
          </mxGeometry>
        </mxCell>
        <mxCell id="41_dY38SIug0fhBY5Ak5-215" value="" style="endArrow=none;dashed=1;html=1;strokeWidth=1;rounded=0;fontSize=20;startSize=5;endSize=5;targetPerimeterSpacing=0;jumpStyle=none;jumpSize=6;strokeColor=#808080;fontStyle=0" edge="1" parent="1">
          <mxGeometry width="50" height="50" relative="1" as="geometry">
            <mxPoint x="171" y="299.99" as="sourcePoint" />
            <mxPoint x="690" y="300" as="targetPoint" />
          </mxGeometry>
        </mxCell>
        <mxCell id="41_dY38SIug0fhBY5Ak5-216" value="" style="endArrow=none;dashed=1;html=1;strokeWidth=1;rounded=0;fontSize=20;startSize=5;endSize=5;targetPerimeterSpacing=0;jumpStyle=none;jumpSize=6;strokeColor=#808080;fontStyle=0" edge="1" parent="1">
          <mxGeometry width="50" height="50" relative="1" as="geometry">
            <mxPoint x="171" y="339.99" as="sourcePoint" />
            <mxPoint x="690" y="340" as="targetPoint" />
          </mxGeometry>
        </mxCell>
        <mxCell id="41_dY38SIug0fhBY5Ak5-197" value="" style="rounded=0;whiteSpace=wrap;html=1;fillColor=#99FF99;" vertex="1" parent="1">
          <mxGeometry x="170" y="320" width="80" height="60" as="geometry" />
        </mxCell>
        <mxCell id="41_dY38SIug0fhBY5Ak5-206" value="" style="rounded=0;whiteSpace=wrap;html=1;fillColor=#99FF99;" vertex="1" parent="1">
          <mxGeometry x="250" y="280" width="80" height="100" as="geometry" />
        </mxCell>
        <mxCell id="41_dY38SIug0fhBY5Ak5-207" value="" style="rounded=0;whiteSpace=wrap;html=1;fillColor=#99FF99;" vertex="1" parent="1">
          <mxGeometry x="330" y="230" width="80" height="150" as="geometry" />
        </mxCell>
        <mxCell id="41_dY38SIug0fhBY5Ak5-208" value="" style="rounded=0;whiteSpace=wrap;html=1;fillColor=#99FF99;" vertex="1" parent="1">
          <mxGeometry x="410" y="340" width="80" height="40" as="geometry" />
        </mxCell>
        <mxCell id="41_dY38SIug0fhBY5Ak5-209" value="" style="rounded=0;whiteSpace=wrap;html=1;fillColor=#99FF99;" vertex="1" parent="1">
          <mxGeometry x="490" y="300" width="80" height="80" as="geometry" />
        </mxCell>
        <mxCell id="41_dY38SIug0fhBY5Ak5-210" value="" style="rounded=0;whiteSpace=wrap;html=1;fillColor=#99FF99;" vertex="1" parent="1">
          <mxGeometry x="570" y="250" width="80" height="130" as="geometry" />
        </mxCell>
        <mxCell id="41_dY38SIug0fhBY5Ak5-217" value="Resource &lt;br&gt;granular load" style="text;html=1;strokeColor=none;fillColor=none;align=center;verticalAlign=middle;whiteSpace=wrap;rounded=0;glass=0;sketch=0;fillStyle=auto;sketchStyle=rough;fontFamily=Verdana;fontSize=18;container=0;horizontal=0;movable=1;resizable=1;rotatable=1;deletable=1;editable=1;locked=0;connectable=1;" vertex="1" parent="1">
          <mxGeometry x="50" y="200" width="60" height="200" as="geometry" />
        </mxCell>
        <mxCell id="41_dY38SIug0fhBY5Ak5-224" value="" style="group" vertex="1" connectable="0" parent="1">
          <mxGeometry x="250" y="200" width="400" height="200" as="geometry" />
        </mxCell>
        <mxCell id="41_dY38SIug0fhBY5Ak5-218" value="" style="endArrow=none;dashed=1;html=1;strokeWidth=1;rounded=0;" edge="1" parent="41_dY38SIug0fhBY5Ak5-224">
          <mxGeometry width="50" height="50" relative="1" as="geometry">
            <mxPoint y="200" as="sourcePoint" />
            <mxPoint as="targetPoint" />
          </mxGeometry>
        </mxCell>
        <mxCell id="41_dY38SIug0fhBY5Ak5-219" value="" style="endArrow=none;dashed=1;html=1;strokeWidth=1;rounded=0;" edge="1" parent="41_dY38SIug0fhBY5Ak5-224">
          <mxGeometry width="50" height="50" relative="1" as="geometry">
            <mxPoint x="80" y="200" as="sourcePoint" />
            <mxPoint x="80" as="targetPoint" />
          </mxGeometry>
        </mxCell>
        <mxCell id="41_dY38SIug0fhBY5Ak5-220" value="" style="endArrow=none;dashed=1;html=1;strokeWidth=1;rounded=0;" edge="1" parent="41_dY38SIug0fhBY5Ak5-224">
          <mxGeometry width="50" height="50" relative="1" as="geometry">
            <mxPoint x="160" y="200" as="sourcePoint" />
            <mxPoint x="160" as="targetPoint" />
          </mxGeometry>
        </mxCell>
        <mxCell id="41_dY38SIug0fhBY5Ak5-221" value="" style="endArrow=none;dashed=1;html=1;strokeWidth=1;rounded=0;" edge="1" parent="41_dY38SIug0fhBY5Ak5-224">
          <mxGeometry width="50" height="50" relative="1" as="geometry">
            <mxPoint x="240" y="200" as="sourcePoint" />
            <mxPoint x="240" as="targetPoint" />
          </mxGeometry>
        </mxCell>
        <mxCell id="41_dY38SIug0fhBY5Ak5-222" value="" style="endArrow=none;dashed=1;html=1;strokeWidth=1;rounded=0;" edge="1" parent="41_dY38SIug0fhBY5Ak5-224">
          <mxGeometry width="50" height="50" relative="1" as="geometry">
            <mxPoint x="320" y="200" as="sourcePoint" />
            <mxPoint x="320" as="targetPoint" />
          </mxGeometry>
        </mxCell>
        <mxCell id="41_dY38SIug0fhBY5Ak5-223" value="" style="endArrow=none;dashed=1;html=1;strokeWidth=1;rounded=0;" edge="1" parent="41_dY38SIug0fhBY5Ak5-224">
          <mxGeometry width="50" height="50" relative="1" as="geometry">
            <mxPoint x="400" y="200" as="sourcePoint" />
            <mxPoint x="400" as="targetPoint" />
          </mxGeometry>
        </mxCell>
        <mxCell id="41_dY38SIug0fhBY5Ak5-226" value="" style="endArrow=none;dashed=1;html=1;strokeWidth=1;rounded=0;exitX=0;exitY=1;exitDx=0;exitDy=0;" edge="1" parent="1" source="41_dY38SIug0fhBY5Ak5-163">
          <mxGeometry width="50" height="50" relative="1" as="geometry">
            <mxPoint x="170" y="320" as="sourcePoint" />
            <mxPoint x="170" y="200" as="targetPoint" />
          </mxGeometry>
        </mxCell>
        <mxCell id="41_dY38SIug0fhBY5Ak5-228" value="Time" style="text;html=1;strokeColor=none;fillColor=none;align=center;verticalAlign=middle;whiteSpace=wrap;rounded=0;glass=0;sketch=0;fillStyle=auto;sketchStyle=rough;fontFamily=Verdana;fontSize=14;container=0;horizontal=1;movable=1;resizable=1;rotatable=1;deletable=1;editable=1;locked=0;connectable=1;" vertex="1" parent="1">
          <mxGeometry x="650" y="430" width="60" height="30" as="geometry" />
        </mxCell>
      </root>
    </mxGraphModel>
  </diagram>
</mxfile>
